<svg width="24" height="24" viewBox="0 0 24 24" fill="none" xmlns="http://www.w3.org/2000/svg">
<path d="M7.55556 13C8.10784 13 8.55556 12.5523 8.55556 12C8.55556 11.4477 8.10784 11 7.55556 11C7.00327 11 6.55556 11.4477 6.55556 12C6.55556 12.5523 7.00327 13 7.55556 13Z" fill="#FF8822"/>
<path d="M7.55556 16.5555C8.10784 16.5555 8.55556 16.1078 8.55556 15.5555C8.55556 15.0033 8.10784 14.5555 7.55556 14.5555C7.00327 14.5555 6.55556 15.0033 6.55556 15.5555C6.55556 16.1078 7.00327 16.5555 7.55556 16.5555Z" fill="#FF8822"/>
<path d="M7.55556 9.44446C8.10784 9.44446 8.55556 8.99674 8.55556 8.44446C8.55556 7.89217 8.10784 7.44446 7.55556 7.44446C7.00327 7.44446 6.55556 7.89217 6.55556 8.44446C6.55556 8.99674 7.00327 9.44446 7.55556 9.44446Z" fill="#FF8822"/>
<path d="M16.4444 7.55554H11.1111C10.6202 7.55554 10.2222 7.95351 10.2222 8.44443C10.2222 8.93535 10.6202 9.33332 11.1111 9.33332H16.4444C16.9354 9.33332 17.3333 8.93535 17.3333 8.44443C17.3333 7.95351 16.9354 7.55554 16.4444 7.55554Z" fill="#FF8822"/>
<path d="M16.4444 11.1111H11.1111C10.6202 11.1111 10.2222 11.5091 10.2222 12C10.2222 12.4909 10.6202 12.8889 11.1111 12.8889H16.4444C16.9354 12.8889 17.3333 12.4909 17.3333 12C17.3333 11.5091 16.9354 11.1111 16.4444 11.1111Z" fill="#FF8822"/>
<path d="M16.4444 14.6666H11.1111C10.6202 14.6666 10.2222 15.0646 10.2222 15.5555C10.2222 16.0464 10.6202 16.4444 11.1111 16.4444H16.4444C16.9354 16.4444 17.3333 16.0464 17.3333 15.5555C17.3333 15.0646 16.9354 14.6666 16.4444 14.6666Z" fill="#FF8822"/>
<path d="M18 4H6C4.89543 4 4 4.89543 4 6V18C4 19.1046 4.89543 20 6 20H18C19.1046 20 20 19.1046 20 18V6C20 4.89543 19.1046 4 18 4Z" stroke="#FF8822" stroke-width="2" stroke-linecap="round" stroke-linejoin="round"/>
</svg>
